HIERARCHY
ROOT Hips
{
	OFFSET 0.000000 0.000000 0.000000 
	CHANNELS 6 Xposition Yposition Zposition Yrotation Zrotation Xrotation 
	JOINT Lumbar
	{
		OFFSET 0.000000 0.000000 0.000000 
		CHANNELS 3 Zrotation Xrotation Yrotation
		JOINT Neck
		{
			OFFSET 0.000000 0.445665 0.000000 
			CHANNELS 3 Zrotation Xrotation Yrotation
			End Site
			{
				OFFSET 0.000000 0.227535 0.000000 
			}
		}
		JOINT RightShoulder
		{
			OFFSET 0.019635 0.377685 0.194865 
			CHANNELS 3 Zrotation Xrotation Yrotation
			JOINT RightElbow
			{
				OFFSET 0.000000 -0.243375 0.000000 
				CHANNELS 2 Zrotation Yrotation
				JOINT RightWrist
				{
					OFFSET 0.000000 -0.264825 0.000000 
					CHANNELS 2 Zrotation Xrotation
					End Site
					{
						OFFSET 0.006600 -0.176220 0.000990 
					}
				}
			}
		}
		JOINT LeftShoulder
		{
			OFFSET 0.019635 0.377685 -0.194865 
			CHANNELS 3 Zrotation Xrotation Yrotation
			JOINT LeftElbow
			{
				OFFSET 0.000000 -0.243375 0.000000 
				CHANNELS 2 Zrotation Yrotation
				JOINT LeftWrist
				{
					OFFSET 0.000000 -0.264825 0.000000 
					CHANNELS 2 Zrotation Xrotation
					End Site
					{
						OFFSET 0.006600 -0.176220 -0.000990 
					}
				}
			}
		}
	}
	JOINT RightHip
	{
		OFFSET 0.052140 -0.069960 0.075570 
		CHANNELS 3 Zrotation Xrotation Yrotation
		JOINT RightKnee
		{
			OFFSET 0.000000 -0.402270 0.000000 
			CHANNELS 1 Zrotation
			JOINT RightAnkle
			{
				OFFSET 0.000000 -0.404085 0.000000 
				CHANNELS 3 Zrotation Xrotation Yrotation
				End Site
				{
					OFFSET 0.204105 -0.089430 0.008415 
				}
			}
		}
	}
	JOINT LeftHip
	{
		OFFSET 0.052140 -0.069960 -0.075570 
		CHANNELS 3 Zrotation Xrotation Yrotation
		JOINT LeftKnee
		{
			OFFSET 0.000000 -0.402270 0.000000 
			CHANNELS 1 Zrotation
			JOINT LeftAnkle
			{
				OFFSET 0.000000 -0.404085 0.000000 
				CHANNELS 3 Zrotation Xrotation Yrotation
				End Site
				{
					OFFSET 0.204105 -0.089430 -0.008415 
				}
			}
		}
	}
}
MOTION
Frames: 16
Frame Time: 0.02
-1.55414 -0.09589 0.33647 539.3896 -45.38209 -1.98164 6.0025 5.11146 -1.80014 -45.92445 -20.37 -2.11965 -51.15478 -32.44457 4.88868 93.36924 80.58571 2.31913 -7.33064 -26.25747 21.20235 7.01886 69.04751 -85.30577 -5.27585 8.17246 72.25307 -11.90821 -11.37681 -62.44689 -5.89413 -2.95354 -3.63303 79.49091 16.12838 1.55062 -67.34559 -7.99186 3.1434 3.836
-1.54533 -0.10659 0.34314 539.22426 -45.27017 -1.75183 5.21217 5.37045 -2.40191 -46.52324 -21.71691 -2.11965 -51.62683 -32.30633 5.00661 93.95944 79.89503 2.28431 -7.33222 -24.61187 22.04642 6.93575 67.9728 -85.42743 -5.5776 7.94199 74.32214 -12.59903 -10.16648 -65.16059 -5.87809 -2.95306 -3.63226 80.91278 15.56488 1.30969 -69.59362 -7.83772 3.20786 3.85822
-1.53669 -0.1179 0.34967 539.09593 -44.96078 -1.52336 4.35829 5.63287 -2.89364 -47.29857 -23.15154 -2.11965 -52.00249 -32.05959 5.30958 94.38919 79.05229 2.2282 -7.12647 -22.62232 23.00282 6.6722 66.67033 -85.36021 -5.83541 7.42767 76.15248 -13.22544 -8.95869 -67.78579 -5.86547 -2.95225 -3.63148 82.38897 14.90216 1.1222 -72.17313 -7.76863 3.29903 3.89771
-1.52802 -0.12897 0.35623 538.94908 -44.71386 -1.29568 3.53323 5.87454 -3.41972 -47.99153 -24.47917 -2.11965 -52.40966 -31.85554 5.52248 94.86472 78.32391 2.16743 -7.0178 -20.81112 23.89443 6.50553 65.51855 -85.40865 -6.13364 7.06151 78.05794 -13.87109 -7.74758 -70.44401 -5.85136 -2.95147 -3.63063 83.80712 14.30845 0.93237 -74.59928 -7.65799 3.37449 3.92751
-1.51916 -0.13991 0.36297 538.81359 -44.58195 -1.06099 2.7039 6.19708 -4.01697 -48.69542 -26.09372 -2.11965 -52.87339 -31.67681 5.76292 95.459 77.40749 2.16689 -6.90143 -18.8985 24.85186 6.27016 64.16514 -85.34034 -6.34791 6.62044 80.10692 -14.5581 -6.54256 -73.13579 -5.83715 -2.95118 -3.63014 85.37086 13.61165 0.66217 -77.05022 -7.5545 3.46198 3.96329
-1.51075 -0.15126 0.36929 538.66245 -44.16331 -0.84221 1.8725 6.35324 -4.4392 -49.41765 -27.13254 -2.11966 -53.19305 -31.42131 5.9878 95.76631 76.84232 2.03777 -6.75125 -17.11799 25.69494 6.13568 63.17635 -85.4647 -6.72327 6.26526 81.79763 -15.14392 -5.32856 -75.73359 -5.82389 -2.94975 -3.62887 86.64132 13.10563 0.56592 -79.52081 -7.45842 3.53202 3.99145
-1.50356 -0.16361 0.37457 538.44901 -43.00472 -0.66019 1.02159 6.0338 -4.38856 -50.14875 -26.52878 -2.11966 -53.15623 -30.9712 6.14097 95.31697 77.32334 1.53596 -6.54651 -15.7938 26.20545 6.34255 63.27649 -86.19971 -7.58662 6.22284 82.57564 -15.46683 -4.0658 -78.11496 -5.81252 -2.94594 -3.62575 87.10103 13.16557 0.95423 -81.99256 -7.36027 3.54632 3.99372
-1.49683 -0.17634 0.37941 538.21983 -41.56358 -0.49557 0.17662 5.54924 -4.1676 -50.89183 -25.34672 -2.11967 -52.97295 -30.44949 6.26961 94.58291 78.15597 0.90936 -6.31738 -14.6138 26.59361 6.65383 63.7465 -87.13226 -8.60924 6.27531 82.99684 -15.68974 -2.79865 -80.39983 -5.80196 -2.94089 -3.62179 87.2603 13.41875 1.51079 -84.46529 -7.26768 3.54272 3.98806
-1.48989 -0.18887 0.38441 538.00352 -40.24986 -0.3274 -0.65171 5.15044 -4.03463 -51.62808 -24.45006 -2.11968 -52.84603 -29.96687 6.39754 93.98277 78.80198 0.35474 -6.10508 -13.36495 27.03033 6.90745 64.03147 -87.94694 -9.53563 6.27878 83.57058 -15.9586 -1.54868 -82.71578 -5.79092 -2.93591 -3.61801 87.54922 13.5741 1.9777 -86.91849 -7.17432 3.54849 3.9867
-1.48292 -0.20153 0.38959 537.76386 -38.93434 -0.1405 -1.56434 4.70747 -3.8537 -52.37582 -23.4645 -2.11969 -52.76328 -29.45295 6.57896 93.36415 79.55559 -0.26459 -5.85701 -12.12019 27.50257 7.20173 64.38287 -88.85684 -10.5544 6.29485 84.18062 -16.22468 -0.23374 -85.08608 -5.78045 -2.93292 -3.61507 87.87159 13.76781 2.5032 -89.46661 -7.0763 3.55009 3.98306
-1.47615 -0.214 0.39429 537.56934 -37.55686 0.00282 -2.29861 4.31605 -3.73306 -53.10086 -22.5215 -2.1197 -52.54948 -28.98844 6.64454 92.71078 80.17101 -0.7791 -5.6858 -10.90289 27.8681 7.43348 64.68309 -89.639 -11.42764 6.3139 84.62838 -16.47163 0.94578 -87.31705 -5.76899 -2.92561 -3.61023 88.04922 13.92928 2.94482 -91.80968 -6.98837 3.55558 3.98196
-1.46974 -0.22599 0.39784 537.49668 -36.08864 0.03407 -2.54482 4.11761 -3.82568 -53.75287 -21.87254 -2.11971 -52.05779 -28.6803 6.36197 92.09852 80.31531 -0.96798 -5.68642 -9.75338 27.98585 7.51035 64.78362 -89.8339 -11.7856 6.29279 84.75911 -16.70823 1.75973 -89.22346 -5.75399 -2.90571 -3.59981 87.92531 13.95095 3.1219 -93.6109 -6.92565 3.57805 3.99077
-1.46352 -0.23773 0.40091 537.4711 -34.56695 0.02146 -2.61022 3.97487 -3.98438 -54.38171 -21.27983 -2.11971 -51.43144 -28.42459 5.96877 91.45023 80.3095 -1.04777 -5.77453 -8.62415 27.99613 7.51311 64.81481 -89.92568 -12.00443 6.27702 84.73169 -16.92632 2.43519 -90.98609 -5.73807 -2.88168 -3.5876 87.66102 13.93454 3.2069 -95.19904 -6.87275 3.60456 4.00215
-1.45725 -0.24947 0.40414 537.42804 -33.06304 0.02616 -2.75689 3.79985 -4.11009 -55.02562 -20.63734 -2.11971 -50.83479 -28.14372 5.64818 90.7739 80.37586 -1.18139 -5.85451 -7.46836 28.04458 7.52285 64.85813 -90.19206 -12.33761 6.27738 84.74945 -17.14097 3.1682 -92.79166 -5.72293 -2.86018 -3.57654 87.44485 13.93855 3.32834 -96.86737 -6.81577 3.6279 4.01166
-1.45083 -0.26172 0.4076 537.36767 -31.57566 0.04081 -2.90973 3.64829 -4.24254 -55.65251 -20.07504 -2.11971 -50.36313 -27.86544 5.23398 90.27135 80.439 -1.3024 -5.80152 -6.38677 28.1361 7.65055 64.99698 -89.94003 -12.46577 6.20457 84.86811 -17.40077 3.92528 -94.69043 -5.70626 -2.83588 -3.56402 87.28527 13.93661 3.47853 -98.60783 -6.75732 3.65635 4.0239
-1.44477 -0.27282 0.41047 537.35504 -30.04615 0.0252 -3.00368 3.46346 -4.37854 -56.30713 -19.369 -2.11971 -49.6046 -27.59577 4.98699 89.40662 80.46702 -1.42092 -6.04468 -5.15844 28.11123 7.51148 64.91442 -90.72304 -12.97922 6.28164 84.74272 -17.56512 4.59782 -96.35962 -5.69258 -2.81647 -3.55414 86.97733 13.93484 3.54477 -100.14539 -6.70428 3.67525 4.03114
